<?xml version="1.0" standalone="no"?><!DOCTYPE svg PUBLIC "-//W3C//DTD SVG 1.1//EN" "http://www.w3.org/Graphics/SVG/1.1/DTD/svg11.dtd"><svg t="1656745985018" class="icon" viewBox="0 0 1024 1024" version="1.1" xmlns="http://www.w3.org/2000/svg" p-id="1717" width="16" height="16" xmlns:xlink="http://www.w3.org/1999/xlink"><defs><style type="text/css">@font-face { font-family: feedback-iconfont; src: url("//at.alicdn.com/t/font_1031158_u69w8yhxdu.woff2?t=1630033759944") format("woff2"), url("//at.alicdn.com/t/font_1031158_u69w8yhxdu.woff?t=1630033759944") format("woff"), url("//at.alicdn.com/t/font_1031158_u69w8yhxdu.ttf?t=1630033759944") format("truetype"); }
</style></defs><path d="M512 20.48h61.44v61.44h-61.44zM573.44 20.48h61.44v61.44h-61.44zM634.88 20.48h61.44v61.44h-61.44z" fill="#553A49" p-id="1718"></path><path d="M512 81.92h61.44v61.44h-61.44zM573.44 81.92h61.44v61.44h-61.44zM634.88 81.92h61.44v61.44h-61.44zM696.32 143.36h61.44v61.44h-61.44zM757.76 143.36h61.44v61.44h-61.44zM757.76 204.8h61.44v61.44h-61.44zM634.88 204.8h61.44v61.44h-61.44zM573.44 204.8h61.44v61.44h-61.44zM512 204.8h61.44v61.44h-61.44zM450.56 143.36h61.44v61.44h-61.44zM389.12 143.36h61.44v61.44h-61.44zM389.12 204.8h61.44v61.44h-61.44zM327.68 143.36h61.44v61.44h-61.44zM819.2 143.36h61.44v61.44h-61.44z" fill="#63E85B" p-id="1719"></path><path d="M512 143.36h61.44v61.44h-61.44zM450.56 204.8h61.44v61.44h-61.44zM696.32 204.8h61.44v61.44h-61.44zM327.68 266.24h61.44v61.44h-61.44zM389.12 266.24h61.44v61.44h-61.44zM512 266.24h61.44v61.44h-61.44zM573.44 266.24h61.44v61.44h-61.44zM634.88 266.24h61.44v61.44h-61.44zM757.76 266.24h61.44v61.44h-61.44zM819.2 266.24h61.44v61.44h-61.44zM880.64 327.68h61.44v61.44h-61.44zM696.32 327.68h61.44v61.44h-61.44zM696.32 389.12h61.44v61.44h-61.44zM634.88 327.68h61.44v61.44h-61.44zM450.56 327.68h61.44v61.44h-61.44z" fill="#50CD52" p-id="1720"></path><path d="M450.56 327.68h61.44v61.44h-61.44zM450.56 389.12h61.44v61.44h-61.44zM266.24 327.68h61.44v61.44h-61.44zM512 327.68h61.44v61.44h-61.44zM573.44 143.36h61.44v61.44h-61.44zM634.88 143.36h61.44v61.44h-61.44z" fill="#50CD52" p-id="1721"></path><path d="M696.32 81.92h61.44v61.44h-61.44zM757.76 81.92h61.44v61.44h-61.44zM819.2 81.92h61.44v61.44h-61.44zM880.64 143.36h61.44v61.44h-61.44zM819.2 204.8h61.44v61.44h-61.44zM880.64 266.24h61.44v61.44h-61.44zM942.08 327.68h61.44v61.44h-61.44zM942.08 389.12h61.44v61.44h-61.44zM880.64 389.12h61.44v61.44h-61.44zM819.2 327.68h61.44v61.44h-61.44zM757.76 327.68h61.44v61.44h-61.44zM696.32 266.24h61.44v61.44h-61.44zM757.76 389.12h61.44v61.44h-61.44zM696.32 450.56h61.44v61.44h-61.44zM634.88 389.12h61.44v61.44h-61.44zM573.44 389.12h61.44v61.44h-61.44zM573.44 450.56h61.44v61.44h-61.44zM573.44 512h61.44v61.44h-61.44zM573.44 573.44h61.44v61.44h-61.44zM573.44 634.88h61.44v61.44h-61.44zM573.44 696.32h61.44v61.44h-61.44zM634.88 696.32h61.44v61.44h-61.44zM696.32 696.32h61.44v61.44h-61.44zM757.76 696.32h61.44v61.44h-61.44zM819.2 757.76h61.44v61.44h-61.44zM880.64 819.2h61.44v61.44h-61.44zM942.08 880.64h61.44v61.44h-61.44zM942.08 942.08h61.44v61.44h-61.44zM20.48 880.64h61.44v61.44H20.48z" fill="#553A49" p-id="1722"></path><path d="M81.92 880.64h61.44v61.44H81.92zM143.36 880.64h61.44v61.44H143.36zM204.8 880.64h61.44v61.44h-61.44zM266.24 880.64h61.44v61.44h-61.44z" fill="#03C2CA" p-id="1723"></path><path d="M266.24 819.2h61.44v61.44h-61.44zM327.68 819.2h61.44v61.44h-61.44zM389.12 819.2h61.44v61.44h-61.44z" fill="#FFDC52" p-id="1724"></path><path d="M450.56 819.2h61.44v61.44h-61.44zM512 819.2h61.44v61.44h-61.44z" fill="#FF6F3B" p-id="1725"></path><path d="M573.44 819.2h61.44v61.44h-61.44z" fill="#FFDC52" p-id="1726"></path><path d="M450.56 757.76h61.44v61.44h-61.44zM512 757.76h61.44v61.44h-61.44zM573.44 757.76h61.44v61.44h-61.44zM634.88 757.76h61.44v61.44h-61.44zM696.32 757.76h61.44v61.44h-61.44zM757.76 757.76h61.44v61.44h-61.44z" fill="#FFEF7E" p-id="1727"></path><path d="M634.88 819.2h61.44v61.44h-61.44zM696.32 819.2h61.44v61.44h-61.44zM757.76 819.2h61.44v61.44h-61.44zM819.2 819.2h61.44v61.44h-61.44z" fill="#FFDC52" p-id="1728"></path><path d="M327.68 880.64h61.44v61.44h-61.44zM389.12 880.64h61.44v61.44h-61.44zM450.56 880.64h61.44v61.44h-61.44zM512 880.64h61.44v61.44h-61.44zM573.44 880.64h61.44v61.44h-61.44zM634.88 880.64h61.44v61.44h-61.44zM696.32 880.64h61.44v61.44h-61.44zM757.76 880.64h61.44v61.44h-61.44zM819.2 880.64h61.44v61.44h-61.44zM880.64 880.64h61.44v61.44h-61.44z" fill="#03C2CA" p-id="1729"></path><path d="M20.48 942.08h61.44v61.44H20.48zM81.92 942.08h61.44v61.44H81.92zM143.36 942.08h61.44v61.44H143.36zM204.8 942.08h61.44v61.44h-61.44zM266.24 942.08h61.44v61.44h-61.44zM327.68 942.08h61.44v61.44h-61.44zM389.12 942.08h61.44v61.44h-61.44zM450.56 942.08h61.44v61.44h-61.44zM512 942.08h61.44v61.44h-61.44zM573.44 942.08h61.44v61.44h-61.44zM634.88 942.08h61.44v61.44h-61.44zM696.32 942.08h61.44v61.44h-61.44zM757.76 942.08h61.44v61.44h-61.44zM819.2 942.08h61.44v61.44h-61.44zM880.64 942.08h61.44v61.44h-61.44zM512 696.32h61.44v61.44h-61.44zM450.56 696.32h61.44v61.44h-61.44zM389.12 757.76h61.44v61.44h-61.44zM327.68 757.76h61.44v61.44h-61.44zM266.24 757.76h61.44v61.44h-61.44zM204.8 819.2h61.44v61.44h-61.44zM143.36 819.2h61.44v61.44H143.36zM81.92 819.2h61.44v61.44H81.92zM573.44 327.68h61.44v61.44h-61.44zM942.08 450.56h61.44v61.44h-61.44zM512 143.36h-61.44V81.92h61.44zM450.56 143.36h-61.44V81.92h61.44zM389.12 143.36h-61.44V81.92h61.44zM327.68 204.8h-61.44V143.36h61.44zM389.12 266.24h-61.44v-61.44h61.44zM327.68 327.68h-61.44v-61.44h61.44zM266.24 389.12h-61.44v-61.44h61.44zM266.24 450.56h-61.44v-61.44h61.44zM327.68 450.56h-61.44v-61.44h61.44zM389.12 389.12h-61.44v-61.44h61.44zM450.56 389.12h-61.44v-61.44h61.44zM512 327.68h-61.44v-61.44h61.44zM450.56 450.56h-61.44v-61.44h61.44zM512 512h-61.44v-61.44h61.44zM573.44 450.56h-61.44v-61.44h61.44zM266.24 512h-61.44v-61.44h61.44z" fill="#553A49" p-id="1730"></path></svg>